<svg width="1024" height="1024" viewBox="0 0 1024 1024" fill="inherit" xmlns="http://www.w3.org/2000/svg">
  <path d="M684.91 890.587C656.823 890.587 627.274 886.198 596.261 877.421C565.249 868.644 534.528 857.526 504.101 844.068C474.259 830.61 446.464 816.566 420.718 801.938C385.024 836.461 338.506 853.723 281.162 853.723C275.895 853.723 270.336 853.43 264.485 852.845C258.634 852.845 252.782 852.553 246.931 851.967C227.036 849.042 205.678 843.19 182.858 834.413C160.037 826.221 139.85 814.226 122.295 798.427C104.741 782.628 93.3307 763.318 88.0644 740.498C87.4793 735.817 86.6016 731.428 85.4313 727.332C84.8462 722.651 84.5536 718.555 84.5536 715.044C84.5536 697.49 91.5753 681.398 105.619 666.77C113.811 657.993 123.173 651.849 133.706 648.338C144.238 644.242 155.648 642.194 167.936 642.194C187.831 642.194 209.189 645.997 232.01 653.604C254.83 661.211 277.358 670.866 299.594 682.569C321.829 693.686 342.602 705.097 361.911 716.799C381.221 728.502 397.312 738.157 410.186 745.764C422.474 725.869 431.251 703.049 436.517 677.302C441.783 651.556 445.294 625.517 447.05 599.186C448.805 572.854 449.975 548.571 450.56 526.335C446.464 526.921 442.368 527.213 438.272 527.213C434.762 527.213 430.958 527.213 426.862 527.213C406.967 527.213 387.365 524.873 368.055 520.191C349.331 515.51 330.899 507.611 312.759 496.493C290.524 481.865 271.507 463.14 255.708 440.319C239.909 416.914 232.01 392.045 232.01 365.714C232.01 355.181 233.472 344.649 236.398 334.116C239.909 322.998 245.175 312.173 252.197 301.641C254.538 297.545 258.341 292.571 263.607 286.719C269.459 280.283 275.31 274.431 281.162 269.165C287.598 263.314 292.864 259.51 296.96 257.755C300.471 255.999 304.275 255.122 308.371 255.122C314.222 255.122 318.903 256.877 322.414 260.388C326.51 263.899 328.558 268.58 328.558 274.431C328.558 281.453 325.925 287.89 320.659 293.741C318.318 296.082 315.685 298.13 312.759 299.885C309.834 301.641 306.908 303.689 303.982 306.029C294.035 315.391 286.72 325.339 282.039 335.871C277.358 345.819 275.018 356.351 275.018 367.469C275.018 385.609 280.284 403.163 290.816 420.132C301.934 436.516 316.563 449.974 334.702 460.507C352.256 471.039 370.981 478.061 390.876 481.572C410.771 484.498 430.666 485.375 450.56 484.205C451.146 466.651 451.438 449.389 451.438 432.42C452.023 414.866 452.608 397.311 453.194 379.757C453.779 362.203 455.242 342.015 457.582 319.195C459.923 295.789 464.019 272.676 469.87 249.855C476.307 226.45 485.669 206.262 497.957 189.293C510.245 171.739 526.922 160.329 547.987 155.062C552.668 153.892 557.349 153.014 562.03 152.429C567.296 151.844 571.978 151.551 576.074 151.551C602.99 151.551 627.566 161.791 649.802 182.271C663.845 195.73 673.793 211.529 679.644 229.668C686.081 247.807 689.299 266.239 689.299 284.964C689.299 316.562 682.277 346.989 668.234 376.246C649.509 415.451 624.933 447.341 594.506 471.917C564.663 496.493 530.725 512.877 492.691 521.069C492.106 545.06 490.935 569.636 489.18 594.797C488.01 619.373 485.962 643.657 483.036 667.647C477.77 706.267 466.359 739.62 448.805 767.707C485.084 787.602 523.411 805.741 563.786 822.125C604.16 838.509 643.95 846.701 683.155 846.701C686.666 846.701 690.176 846.701 693.687 846.701C697.198 846.701 700.709 846.409 704.22 845.823C711.242 844.653 715.63 842.313 717.386 838.802C716.801 830.61 718.848 823.881 723.53 818.614C728.796 813.348 734.355 810.715 740.206 810.715C748.398 810.715 754.25 815.103 757.761 823.881C758.931 826.221 759.809 828.854 760.394 831.78C760.979 834.706 761.271 837.339 761.271 839.679C761.271 853.138 755.712 864.255 744.595 873.033C734.062 882.395 722.652 887.661 710.364 888.831C706.268 889.417 702.172 889.709 698.076 889.709C693.98 890.294 689.591 890.587 684.91 890.587ZM493.568 477.183C553.838 461.385 599.479 421.302 630.492 356.937C641.61 334.701 647.168 310.71 647.168 284.964C647.168 269.75 644.828 255.414 640.147 241.956C635.466 228.498 627.566 217.087 616.448 207.725C610.012 202.459 602.405 198.07 593.628 194.559C584.851 191.049 576.366 189.293 568.174 189.293C556.471 189.293 546.816 193.097 539.21 200.703C529.847 210.651 522.24 226.45 516.389 248.1C510.538 269.165 506.149 293.449 503.223 320.95C500.298 347.867 497.957 375.076 496.202 402.578C495.031 430.079 494.154 454.948 493.568 477.183ZM282.039 810.715C324.17 810.715 357.523 800.182 382.099 779.117C366.885 769.17 356.06 762.441 349.623 758.93C343.772 755.419 335.872 750.738 325.925 744.886C320.074 741.375 310.419 736.109 296.96 729.087C283.502 722.066 268.288 715.044 251.319 708.022C234.35 700.415 217.674 693.979 201.29 688.713C184.906 683.446 170.57 680.813 158.282 680.813C147.164 680.813 138.972 683.739 133.706 689.59C131.95 691.346 130.487 694.857 129.317 700.123C128.732 704.804 128.439 710.07 128.439 715.922C128.439 723.529 129.317 730.55 131.072 736.987C135.754 751.03 144.823 763.318 158.282 773.851C171.74 783.798 186.954 791.698 203.923 797.549C220.892 803.401 236.691 807.204 251.319 808.959C256.586 809.545 261.852 809.837 267.118 809.837C272.384 810.422 277.358 810.715 282.039 810.715Z" fill="inherit"/>
  <path d="M683.448 797.427C665.894 797.427 651.265 793.721 639.562 786.309C627.86 778.507 618.302 768.56 610.89 756.467C603.869 743.984 598.798 730.525 595.677 716.092C592.556 701.268 590.996 686.835 590.996 672.791C590.996 645.094 597.822 617.983 611.476 591.456C625.129 564.93 643.463 543.865 666.479 528.261C686.374 514.998 708.609 508.366 733.185 508.366C747.619 508.366 761.077 511.097 773.56 516.558C786.433 522.019 796.771 530.602 804.573 542.304C812.765 553.617 816.861 568.441 816.861 586.775C816.861 594.187 815.886 607.06 813.935 625.395C811.985 643.339 811.009 662.064 811.009 681.568C811.009 696.392 811.985 710.435 813.935 723.699C816.276 736.572 820.177 747.104 825.638 755.296C831.489 763.488 839.681 767.584 850.214 767.584C855.285 767.584 858.991 769.145 861.332 772.266C863.672 775.386 864.842 778.897 864.842 782.798C864.842 786.309 863.672 789.625 861.332 792.746C858.991 795.866 855.285 797.427 850.214 797.427C835 797.427 822.517 793.916 812.765 786.894C803.012 779.482 795.601 770.12 790.529 758.807C785.458 747.104 782.142 735.011 780.582 722.528C774.34 734.621 766.538 746.519 757.176 758.222C747.814 769.535 736.891 778.897 724.408 786.309C712.315 793.721 698.662 797.427 683.448 797.427ZM683.448 767.584C696.711 767.584 708.219 763.683 717.972 755.882C728.114 747.69 736.891 737.157 744.303 724.284C752.105 711.411 758.542 697.562 763.613 682.739C769.074 667.915 773.365 653.677 776.486 640.023C779.997 625.98 782.727 614.082 784.678 604.33C785.848 597.698 786.433 591.651 786.433 586.19C786.433 581.119 785.848 576.243 784.678 571.562C783.508 566.88 781.362 562.394 778.241 558.103C773.17 551.472 766.538 546.595 758.346 543.475C750.545 540.354 742.158 538.794 733.185 538.794C724.603 538.794 715.826 540.159 706.854 542.89C698.272 545.62 690.665 549.131 684.033 553.422C665.309 566.295 650.095 583.654 638.392 605.5C627.079 627.345 621.423 649.776 621.423 672.791C621.423 687.225 623.178 701.853 626.689 716.677C630.2 731.111 636.442 743.203 645.414 752.956C654.776 762.708 667.454 767.584 683.448 767.584Z" fill="inherit"/>
  <path d="M929.939 777.119C922.917 777.119 917.651 775.071 914.14 770.975C910.922 766.586 909.312 761.759 909.312 756.493C909.312 751.226 911.068 746.399 914.579 742.01C918.09 737.329 923.356 734.989 930.378 734.989C937.692 734.989 942.958 737.329 946.176 742.01C949.687 746.399 951.443 751.08 951.443 756.054C951.15 761.32 949.249 766.148 945.738 770.536C942.227 774.925 936.96 777.119 929.939 777.119Z" fill="inherit"/>
</svg>
